:FULLY-SPECIFIED
:FORCE-ALL-JOINTS-BE-3DOF
:DEGREES
437
root 10.515 17.2105 25.6304 7.8941 -1.89652 -0.443951
lfemur -33.0425 4.09624 -24.8761
ltibia 31.7652 0 0
lfoot -6.62256 6.62019 0
ltoes 1.45614 0 0
rfemur -4.14755 -0.826515 19.7612
rtibia 54.6919 0 0
rfoot 13.3086 -3.13982 0
rtoes -10.7937 0 0
lowerback -5.4386 2.04955 -1.2105
upperback -4.51004 2.79004 1.13373
thorax -1.71375 1.44597 1.95291
lowerneck -15.7184 -5.28316 -14.9615
upperneck 22.5809 -6.85177 13.2804
head 10.8636 -2.95694 6.41546
lclavicle 1.62133e-14 1.92159e-15 0
lhumerus -42.9706 -3.66418 89.0509
lradius 19.2498 0 0
lwrist -5.27099 0 0
lhand -12.5953 -25.0928 0
lfingers 7.12502 0 0
lthumb 13.4831 4.44764 0
rclavicle 1.62133e-14 1.92159e-15 0
rhumerus -46.5371 9.94588 -90.6184
rradius 29.9389 0 0
rwrist -12.6743 0 0
rhand -33.6988 -19.4509 0
rfingers 7.12502 0 0
rthumb -6.88801 -49.2887 0
438
root 10.5291 17.2324 25.7387 7.91229 -1.8432 -0.537943
lfemur -32.5067 4.18561 -24.8191
ltibia 31.4381 0 0
lfoot -6.8677 6.50571 0
ltoes 0.892167 0 0
rfemur -5.78883 -0.911839 19.9313
rtibia 56.916 0 0
rfoot 11.8882 -4.82278 0
rtoes -10.2538 0 0
lowerback -5.15027 1.91345 -1.09477
upperback -4.48457 2.60257 1.21579
thorax -1.8373 1.35121 1.95344
lowerneck -16.2191 -5.22934 -14.7656
upperneck 22.7123 -6.71446 13.086
head 10.9708 -2.88155 6.32984
lclavicle 2.24316e-14 4.34013e-15 0
lhumerus -41.9139 -3.93213 89.2175
lradius 19.1485 0 0
lwrist -5.16578 0 0
lhand -12.9881 -25.1508 0
lfingers 7.12502 0 0
lthumb 13.1046 4.41557 0
rclavicle 2.24316e-14 4.34013e-15 0
rhumerus -46.541 9.98264 -90.5493
rradius 29.997 0 0
rwrist -12.3564 0 0
rhand -34.9929 -17.9096 0
rfingers 7.12502 0 0
rthumb -8.13731 -47.714 0
439
root 10.5433 17.2543 25.847 7.93048 -1.78989 -0.631935
lfemur -31.971 4.27498 -24.7621
ltibia 31.1109 0 0
lfoot -7.11285 6.39123 0
ltoes 0.328199 0 0
rfemur -7.43012 -0.997162 20.1013
rtibia 59.1401 0 0
rfoot 10.4679 -6.50573 0
rtoes -9.71383 0 0
lowerback -4.86194 1.77736 -0.979049
upperback -4.4591 2.4151 1.29785
thorax -1.96084 1.25646 1.95397
lowerneck -16.7197 -5.17553 -14.5697
upperneck 22.8437 -6.57714 12.8916
head 11.078 -2.80616 6.24422
lclavicle 2.86498e-14 6.75868e-15 0
lhumerus -40.8572 -4.20007 89.3841
lradius 19.0471 0 0
lwrist -5.06057 0 0
lhand -13.3808 -25.2087 0
lfingers 7.12502 0 0
lthumb 12.7261 4.3835 0
rclavicle 2.86498e-14 6.75868e-15 0
rhumerus -46.545 10.0194 -90.4803
rradius 30.0551 0 0
rwrist -12.0386 0 0
rhand -36.2869 -16.3683 0
rfingers 7.12502 0 0
rthumb -9.38662 -46.1393 0
440
root 10.5712 17.283 26.0081 7.60878 -1.56795 -0.166021
lfemur -30.4876 4.36177 -25.3955
ltibia 30.357 0 0
lfoot -7.50215 6.12275 0
ltoes 0.340429 0 0
rfemur -7.97913 -1.37434 19.4549
rtibia 59.7934 0 0
rfoot 9.02425 -6.64854 0
rtoes -10.1367 0 0
lowerback -5.05734 1.54475 -1.2502
upperback -4.27662 2.11865 1.2186
thorax -1.65417 1.10704 2.01913
lowerneck -16.6116 -5.03944 -14.4217
upperneck 22.9224 -6.39631 12.7077
head 11.0449 -2.73507 6.17814
lclavicle 2.18621e-14 5.63223e-15 0
lhumerus -40.0234 -4.68707 89.5396
lradius 19.155 0 0
lwrist -5.15709 0 0
lhand -13.045 -24.9161 0
lfingers 7.12502 0 0
lthumb 13.0497 4.65432 0
rclavicle 2.18621e-14 5.63223e-15 0
rhumerus -46.726 10.156 -90.4398
rradius 30.3387 0 0
rwrist -12.0171 0 0
rhand -35.4532 -18.2652 0
rfingers 7.12502 0 0
rthumb -8.58186 -48.0628 0
441
root 10.5991 17.3117 26.1691 7.28708 -1.34601 0.299893
lfemur -29.0042 4.44855 -26.029
ltibia 29.6032 0 0
lfoot -7.89145 5.85427 0
ltoes 0.352659 0 0
rfemur -8.52815 -1.75151 18.8084
rtibia 60.4466 0 0
rfoot 7.5806 -6.79135 0
rtoes -10.5597 0 0
lowerback -5.25274 1.31214 -1.52136
upperback -4.09413 1.82219 1.13935
thorax -1.3475 0.957612 2.0843
lowerneck -16.5035 -4.90336 -14.2738
upperneck 23.0011 -6.21547 12.5238
head 11.0117 -2.66398 6.11205
lclavicle 1.50745e-14 4.50579e-15 0
lhumerus -39.1896 -5.17408 89.695
lradius 19.2629 0 0
lwrist -5.25361 0 0
lhand -12.7093 -24.6234 0
lfingers 7.12502 0 0
lthumb 13.3733 4.92513 0
rclavicle 1.50745e-14 4.50579e-15 0
rhumerus -46.9071 10.2926 -90.3992
rradius 30.6223 0 0
rwrist -11.9955 0 0
rhand -34.6195 -20.1621 0
rfingers 7.12502 0 0
rthumb -7.77709 -49.9864 0
442
root 10.627 17.3404 26.3301 6.96537 -1.12407 0.765807
lfemur -27.5207 4.53534 -26.6624
ltibia 28.8493 0 0
lfoot -8.28074 5.58579 0
ltoes 0.364889 0 0
rfemur -9.07716 -2.12869 18.162
rtibia 61.0999 0 0
rfoot 6.13696 -6.93416 0
rtoes -10.9826 0 0
lowerback -5.44814 1.07953 -1.79251
upperback -3.91165 1.52574 1.0601
thorax -1.04082 0.808187 2.14946
lowerneck -16.3955 -4.76727 -14.1258
upperneck 23.0799 -6.03464 12.3399
head 10.9785 -2.5929 6.04597
lclavicle 8.2868e-15 3.37934e-15 0
lhumerus -38.3558 -5.66108 89.8504
lradius 19.3708 0 0
lwrist -5.35013 0 0
lhand -12.3735 -24.3308 0
lfingers 7.12502 0 0
lthumb 13.6969 5.19595 0
rclavicle 8.2868e-15 3.37934e-15 0
rhumerus -47.0881 10.4292 -90.3586
rradius 30.9059 0 0
rwrist -11.974 0 0
rhand -33.7858 -22.059 0
rfingers 7.12502 0 0
rthumb -6.97233 -51.9099 0
443
root 10.6549 17.3691 26.4912 6.64367 -0.902129 1.23172
lfemur -26.0373 4.62213 -27.2958
ltibia 28.0954 0 0
lfoot -8.67004 5.31731 0
ltoes 0.37712 0 0
rfemur -9.62617 -2.50586 17.5156
rtibia 61.7531 0 0
rfoot 4.69331 -7.07696 0
rtoes -11.4055 0 0
lowerback -5.64354 0.846915 -2.06366
upperback -3.72917 1.22928 0.980854
thorax -0.734151 0.658763 2.21462
lowerneck -16.2874 -4.63118 -13.9778
upperneck 23.1586 -5.85381 12.156
head 10.9454 -2.52181 5.97988
lclavicle 1.49913e-15 2.25289e-15 0
lhumerus -37.5219 -6.14808 90.0059
lradius 19.4787 0 0
lwrist -5.44664 0 0
lhand -12.0377 -24.0381 0
lfingers 7.12502 0 0
lthumb 14.0205 5.46676 0
rclavicle 1.49913e-15 2.25289e-15 0
rhumerus -47.2691 10.5659 -90.3181
rradius 31.1894 0 0
rwrist -11.9525 0 0
rhand -32.9521 -23.9558 0
rfingers 7.12502 0 0
rthumb -6.16757 -53.8335 0
